<svg xmlns="http://www.w3.org/2000/svg" viewBox="0 0 48 48" fill="none">
  <rect width="48" height="48" rx="8" fill="#fff"/>
  <path d="M34 12H14a2 2 0 00-2 2v20a2 2 0 002 2h20a2 2 0 002-2V14a2 2 0 00-2-2z" fill="#4285F4"/>
  <path d="M34 18H14v16a2 2 0 002 2h16a2 2 0 002-2V18z" fill="#fff"/>
  <rect x="18" y="22" width="4" height="4" fill="#EA4335"/>
  <rect x="26" y="22" width="4" height="4" fill="#FBBC04"/>
  <rect x="18" y="28" width="4" height="4" fill="#34A853"/>
  <rect x="26" y="28" width="4" height="4" fill="#4285F4"/>
</svg>
