<svg xmlns="http://www.w3.org/2000/svg" viewBox="0 0 48 48" fill="none">
  <!-- Slack official multi-color pinwheel -->
  <!-- Pink section -->
  <path d="M10.1 30.2a5 5 0 0 1-5 5 5 5 0 0 1-5-5 5 5 0 0 1 5-5h5v5zm2.5 0a5 5 0 0 1 5-5 5 5 0 0 1 5 5v12.6a5 5 0 0 1-5 5 5 5 0 0 1-5-5V30.2z" transform="translate(6, 0) scale(0.96)" fill="#E01E5A"/>
  <!-- Blue section -->
  <path d="M17.6 10a5 5 0 0 1-5-5 5 5 0 0 1 5-5 5 5 0 0 1 5 5v5h-5zm0 2.6a5 5 0 0 1 5 5 5 5 0 0 1-5 5H5a5 5 0 0 1-5-5 5 5 0 0 1 5-5h12.6z" transform="translate(6, 0) scale(0.96)" fill="#36C5F0"/>
  <!-- Green section -->
  <path d="M37.8 17.6a5 5 0 0 1 5-5 5 5 0 0 1 5 5 5 5 0 0 1-5 5h-5v-5zm-2.5 0a5 5 0 0 1-5 5 5 5 0 0 1-5-5V5a5 5 0 0 1 5-5 5 5 0 0 1 5 5v12.6z" transform="translate(6, 0) scale(0.96)" fill="#2EB67D"/>
  <!-- Yellow section -->
  <path d="M30.3 37.8a5 5 0 0 1 5 5 5 5 0 0 1-5 5 5 5 0 0 1-5-5v-5h5zm0-2.5a5 5 0 0 1-5-5 5 5 0 0 1 5-5h12.5a5 5 0 0 1 5 5 5 5 0 0 1-5 5H30.3z" transform="translate(6, 0) scale(0.96)" fill="#ECB22E"/>
</svg>